<svg xmlns="http://www.w3.org/2000/svg" xmlns:xlink="http://www.w3.org/1999/xlink" width="2160" zoomAndPan="magnify" viewBox="0 0 1620 2879.999992" height="3840" preserveAspectRatio="xMidYMid meet" version="1.0"><defs><g/><clipPath id="f82439a01b"><path d="M 486 920.855469 L 1123 920.855469 L 1123 1558 L 486 1558 Z M 486 920.855469 " clip-rule="nonzero"/></clipPath><clipPath id="9c0742b6c8"><path d="M 993 1425 L 1132 1425 L 1132 1564.355469 L 993 1564.355469 Z M 993 1425 " clip-rule="nonzero"/></clipPath></defs><rect x="-162" width="1944" fill="#ffffff" y="-287.999999" height="3455.999991" fill-opacity="1"/><rect x="-162" width="1944" fill="#000000" y="-287.999999" height="3455.999991" fill-opacity="1"/><g clip-path="url(#f82439a01b)"><path fill="#ffffff" d="M 579.34375 1464.066406 C 608.558594 1493.28125 642.582031 1516.21875 680.476562 1532.246094 C 719.714844 1548.84375 761.386719 1557.257812 804.332031 1557.257812 C 847.277344 1557.257812 888.949219 1548.84375 928.191406 1532.246094 C 959.902344 1518.832031 988.890625 1500.5625 1014.632812 1477.839844 L 999.671875 1462.878906 C 991.164062 1454.371094 991.164062 1440.578125 999.671875 1432.066406 C 1008.179688 1423.558594 1021.972656 1423.558594 1030.480469 1432.070312 L 1045.296875 1446.882812 C 1067.007812 1421.769531 1084.523438 1393.621094 1097.503906 1362.933594 C 1114.101562 1323.691406 1122.515625 1282.019531 1122.515625 1239.074219 C 1122.515625 1196.128906 1114.101562 1154.457031 1097.503906 1115.21875 C 1081.476562 1077.324219 1058.539062 1043.300781 1029.324219 1014.085938 C 1000.109375 984.871094 966.082031 961.933594 928.191406 945.90625 C 888.949219 929.308594 847.277344 920.890625 804.332031 920.890625 C 761.386719 920.890625 719.714844 929.308594 680.476562 945.90625 C 642.582031 961.933594 608.558594 984.871094 579.34375 1014.085938 C 550.128906 1043.300781 527.191406 1077.324219 511.164062 1115.21875 C 494.566406 1154.457031 486.148438 1196.128906 486.148438 1239.074219 C 486.148438 1282.019531 494.566406 1323.691406 511.164062 1362.933594 C 527.191406 1400.824219 550.128906 1434.851562 579.34375 1464.066406 Z M 804.332031 964.464844 C 955.753906 964.464844 1078.945312 1087.65625 1078.945312 1239.074219 C 1078.945312 1390.496094 955.753906 1513.6875 804.332031 1513.6875 C 652.914062 1513.6875 529.722656 1390.496094 529.722656 1239.074219 C 529.722656 1087.65625 652.914062 964.464844 804.332031 964.464844 Z M 804.332031 964.464844 " fill-opacity="1" fill-rule="nonzero"/></g><path fill="#ffffff" d="M 682.03125 1260.863281 L 782.546875 1260.863281 L 782.546875 1217.289062 L 682.03125 1217.289062 C 670 1217.289062 660.246094 1227.042969 660.246094 1239.074219 C 660.246094 1251.109375 670 1260.863281 682.03125 1260.863281 Z M 682.03125 1260.863281 " fill-opacity="1" fill-rule="nonzero"/><path fill="#ffffff" d="M 926.636719 1260.863281 C 938.667969 1260.863281 948.421875 1251.109375 948.421875 1239.074219 C 948.421875 1227.042969 938.667969 1217.289062 926.636719 1217.289062 L 826.121094 1217.289062 L 826.121094 1260.863281 Z M 926.636719 1260.863281 " fill-opacity="1" fill-rule="nonzero"/><path fill="#ffffff" d="M 782.546875 1361.378906 C 782.546875 1373.410156 792.300781 1383.164062 804.332031 1383.164062 C 816.367188 1383.164062 826.121094 1373.410156 826.121094 1361.378906 L 826.121094 1116.773438 C 826.121094 1104.742188 816.367188 1094.988281 804.332031 1094.988281 C 792.300781 1094.988281 782.546875 1104.742188 782.546875 1116.773438 Z M 782.546875 1361.378906 " fill-opacity="1" fill-rule="nonzero"/><g clip-path="url(#9c0742b6c8)"><path fill="#ffffff" d="M 999.671875 1432.066406 C 991.164062 1440.578125 991.164062 1454.371094 999.671875 1462.878906 L 1094.457031 1557.664062 C 1098.710938 1561.917969 1104.285156 1564.046875 1109.863281 1564.046875 C 1115.4375 1564.046875 1121.015625 1561.917969 1125.269531 1557.664062 C 1133.777344 1549.15625 1133.777344 1535.363281 1125.269531 1526.855469 L 1045.296875 1446.882812 L 1030.480469 1432.070312 C 1021.972656 1423.558594 1008.179688 1423.558594 999.671875 1432.066406 Z M 999.671875 1432.066406 " fill-opacity="1" fill-rule="nonzero"/></g><path stroke-linecap="butt" transform="matrix(0.589325, 0, 0, 0.589325, 57.41172, 1649.433651)" fill="none" stroke-linejoin="miter" d="M 461.953432 394.002164 L 321.876554 60.19856 L 407.720289 60.19856 L 491.887052 279.504081 L 576.053815 60.19856 L 661.798124 60.19856 L 521.820671 394.002164 Z M 859.647683 60.19856 L 859.647683 126.979166 L 744.758528 126.979166 L 744.758528 193.262646 L 854.808989 193.262646 L 854.808989 260.043252 L 744.758528 260.043252 L 744.758528 327.221558 L 859.647683 327.221558 L 859.647683 394.002164 L 668.698234 394.002164 L 668.698234 60.19856 Z M 897.309957 60.19856 L 1016.646734 60.19856 C 1048.780965 60.19856 1074.96294 68.762385 1095.179401 85.883408 C 1115.402491 103.004431 1125.510721 127.476292 1125.510721 159.285734 C 1125.510721 183.850391 1119.352986 204.431412 1107.037516 221.022167 C 1094.788328 237.61955 1078.157803 249.278814 1057.14594 255.993331 L 1172.035096 394.002164 L 1075.327499 394.002164 L 973.376878 262.117924 L 973.376878 394.002164 L 897.309957 394.002164 Z M 973.376878 208.282482 L 982.265493 208.282482 C 989.251772 208.282482 995.177515 208.149915 1000.049351 207.884781 C 1004.921186 207.619647 1010.455857 206.698307 1016.646734 205.12076 C 1022.837611 203.470301 1027.808872 201.170265 1031.560517 198.207393 C 1035.385074 195.178238 1038.639593 190.830042 1041.343959 185.162804 C 1044.041696 179.502195 1045.393879 172.655112 1045.393879 164.614925 C 1045.393879 156.515084 1044.041696 149.634859 1041.343959 143.97425 C 1038.639593 138.307012 1035.385074 133.991958 1031.560517 131.029086 C 1027.808872 128.066215 1022.837611 125.75955 1016.646734 124.115719 C 1010.455857 122.465261 1004.921186 121.510778 1000.049351 121.252273 C 995.177515 120.987139 989.251772 120.854572 982.265493 120.854572 L 973.376878 120.854572 Z M 1561.264947 394.002164 L 1545.456337 196.13272 L 1543.481089 196.13272 L 1475.122936 392.026917 L 1429.778408 392.026917 L 1361.413626 196.13272 L 1359.338953 196.13272 L 1343.636397 394.002164 L 1267.569476 394.002164 L 1297.503095 60.19856 L 1378.408711 60.19856 L 1452.400959 252.732184 L 1526.486005 60.19856 L 1607.398249 60.19856 L 1637.32524 394.002164 Z M 1831.575606 60.19856 L 1966.323293 394.002164 L 1884.628904 394.002164 L 1859.931679 327.221558 L 1732.892761 327.221558 L 1708.195537 394.002164 L 1626.401722 394.002164 L 1761.14278 60.19856 Z M 1834.04798 260.440952 L 1796.803293 163.335654 L 1796.014519 163.335654 L 1758.769832 260.440952 Z M 2096.2124 54.073966 C 2114.254763 54.073966 2131.906054 56.712049 2149.159644 61.974957 C 2166.479517 67.244493 2179.325255 72.447747 2187.683602 77.584716 L 2199.839992 85.684558 L 2169.018174 146.34057 C 2166.578942 144.763023 2163.185228 142.68835 2158.84366 140.116551 C 2154.561747 137.551381 2146.495048 134.124525 2134.636933 129.842612 C 2122.785447 125.501044 2111.716106 123.326946 2101.448795 123.326946 C 2088.801907 123.326946 2079.018465 126.024683 2072.105098 131.426787 C 2065.258015 136.822262 2061.831159 144.100188 2061.831159 153.253937 C 2061.831159 157.867267 2063.448476 162.116038 2066.669853 166.00025 C 2069.897858 169.884462 2075.432529 174.06695 2083.267236 178.547713 C 2091.108572 182.955564 2097.988797 186.514987 2103.91454 189.212725 C 2109.840283 191.917091 2118.994032 195.967011 2131.375786 201.369115 C 2152.977572 210.589147 2171.384494 223.09684 2186.596553 238.90545 C 2201.881524 254.647776 2209.51738 272.491289 2209.51738 292.449245 C 2209.51738 311.611799 2206.057383 328.341749 2199.144016 342.632468 C 2192.296932 356.923186 2182.844908 368.118466 2170.794571 376.218307 C 2158.810518 384.318148 2145.533937 390.310175 2130.984713 394.194387 C 2116.428861 398.085227 2100.653393 400.027333 2083.664937 400.027333 C 2069.109085 400.027333 2054.818367 398.542583 2040.792782 395.579711 C 2026.76057 392.61684 2015.008509 388.931478 2005.523343 384.516998 C 1996.10446 380.036235 1987.613546 375.661526 1980.037345 371.379613 C 1972.527426 367.031416 1966.999384 363.379197 1963.439961 360.409697 L 1958.203566 355.968704 L 1996.237027 292.051544 C 1999.465033 294.749282 2003.912654 298.209279 2009.573263 302.424909 C 2015.240501 306.574254 2025.282448 312.16858 2039.705733 319.221142 C 2054.195302 326.200793 2066.968128 329.687304 2078.030841 329.687304 C 2110.105417 329.687304 2126.139391 318.757158 2126.139391 296.890238 C 2126.139391 292.283536 2124.992687 288.034765 2122.686022 284.150553 C 2120.379357 280.266341 2116.329436 276.375501 2110.53626 272.491289 C 2104.736455 268.540794 2099.599486 265.412213 2095.125351 263.105548 C 2090.710871 260.805512 2083.432945 257.312372 2073.291572 252.639387 C 2063.216484 247.89349 2055.739707 244.307553 2050.867871 241.868321 C 2030.65141 231.859516 2015.008509 219.378337 2003.945796 204.431412 C 1992.876455 189.477859 1987.348412 173.377602 1987.348412 156.124012 C 1987.348412 126.15725 1998.411125 101.658876 2020.536551 82.622261 C 2042.668605 63.592274 2067.889469 54.073966 2096.2124 54.073966 Z M 2096.2124 54.073966 " stroke="#121723" stroke-width="106.215897" stroke-opacity="1" stroke-miterlimit="4"/><g fill="#ffffff" fill-opacity="1"><g transform="translate(253.795011, 1881.627631)"><g><path d="M 75.828125 0 L -6.671875 -196.71875 L 43.875 -196.71875 L 93.46875 -67.484375 L 143.078125 -196.71875 L 193.625 -196.71875 L 111.125 0 Z M 75.828125 0 "/></g></g></g><g fill="#ffffff" fill-opacity="1"><g transform="translate(437.16927, 1881.627631)"><g><path d="M 126.859375 -196.71875 L 126.859375 -157.375 L 59.140625 -157.375 L 59.140625 -118.265625 L 124 -118.265625 L 124 -78.921875 L 59.140625 -78.921875 L 59.140625 -39.34375 L 126.859375 -39.34375 L 126.859375 0 L 14.3125 0 L 14.3125 -196.71875 Z M 126.859375 -196.71875 "/></g></g></g><g fill="#ffffff" fill-opacity="1"><g transform="translate(571.898047, 1881.627631)"><g><path d="M 14.3125 -196.71875 L 84.65625 -196.71875 C 103.570312 -196.71875 118.988281 -191.671875 130.90625 -181.578125 C 142.832031 -171.484375 148.796875 -157.054688 148.796875 -138.296875 C 148.796875 -123.835938 145.175781 -111.71875 137.9375 -101.9375 C 130.707031 -92.164062 120.894531 -85.289062 108.5 -81.3125 L 176.21875 0 L 119.234375 0 L 59.140625 -77.734375 L 59.140625 0 L 14.3125 0 Z M 59.140625 -109.453125 L 64.375 -109.453125 C 68.507812 -109.453125 72.007812 -109.53125 74.875 -109.6875 C 77.738281 -109.84375 81 -110.394531 84.65625 -111.34375 C 88.3125 -112.300781 91.25 -113.65625 93.46875 -115.40625 C 95.695312 -117.15625 97.601562 -119.695312 99.1875 -123.03125 C 100.78125 -126.375 101.578125 -130.429688 101.578125 -135.203125 C 101.578125 -139.972656 100.78125 -144.023438 99.1875 -147.359375 C 97.601562 -150.703125 95.695312 -153.25 93.46875 -155 C 91.25 -156.75 88.3125 -158.097656 84.65625 -159.046875 C 81 -160.003906 77.738281 -160.5625 74.875 -160.71875 C 72.007812 -160.875 68.507812 -160.953125 64.375 -160.953125 L 59.140625 -160.953125 Z M 59.140625 -109.453125 "/></g></g></g><g fill="#ffffff" fill-opacity="1"><g transform="translate(739.057168, 1881.627631)"><g/></g></g><g fill="#ffffff" fill-opacity="1"><g transform="translate(800.579313, 1881.627631)"><g><path d="M 176.9375 0 L 167.625 -116.609375 L 166.4375 -116.609375 L 126.140625 -1.1875 L 99.4375 -1.1875 L 59.140625 -116.609375 L 57.9375 -116.609375 L 48.640625 0 L 3.8125 0 L 21.453125 -196.71875 L 69.15625 -196.71875 L 112.78125 -83.21875 L 156.421875 -196.71875 L 204.109375 -196.71875 L 221.765625 0 Z M 176.9375 0 "/></g></g></g><g fill="#ffffff" fill-opacity="1"><g transform="translate(1022.583772, 1881.627631)"><g><path d="M 114.21875 -196.71875 L 193.625 0 L 145.453125 0 L 130.90625 -39.34375 L 56.03125 -39.34375 L 41.484375 0 L -6.671875 0 L 72.734375 -196.71875 Z M 115.65625 -78.6875 L 93.71875 -135.921875 L 93.234375 -135.921875 L 71.296875 -78.6875 Z M 115.65625 -78.6875 "/></g></g></g><g fill="#ffffff" fill-opacity="1"><g transform="translate(1205.958031, 1881.627631)"><g><path d="M 86.796875 -200.296875 C 97.441406 -200.296875 107.851562 -198.742188 118.03125 -195.640625 C 128.207031 -192.546875 135.757812 -189.488281 140.6875 -186.46875 L 147.84375 -181.703125 L 129.71875 -145.9375 C 128.289062 -146.882812 126.300781 -148.113281 123.75 -149.625 C 121.207031 -151.132812 116.4375 -153.160156 109.4375 -155.703125 C 102.445312 -158.253906 95.929688 -159.53125 89.890625 -159.53125 C 82.421875 -159.53125 76.660156 -157.9375 72.609375 -154.75 C 68.554688 -151.570312 66.53125 -147.28125 66.53125 -141.875 C 66.53125 -139.175781 67.484375 -136.671875 69.390625 -134.359375 C 71.296875 -132.054688 74.550781 -129.59375 79.15625 -126.96875 C 83.769531 -124.351562 87.828125 -122.25 91.328125 -120.65625 C 94.828125 -119.0625 100.234375 -116.675781 107.546875 -113.5 C 120.265625 -108.09375 131.113281 -100.738281 140.09375 -91.4375 C 149.070312 -82.144531 153.5625 -71.617188 153.5625 -59.859375 C 153.5625 -48.566406 151.535156 -38.707031 147.484375 -30.28125 C 143.429688 -21.851562 137.867188 -15.253906 130.796875 -10.484375 C 123.722656 -5.722656 115.890625 -2.191406 107.296875 0.109375 C 98.710938 2.421875 89.414062 3.578125 79.40625 3.578125 C 70.820312 3.578125 62.394531 2.703125 54.125 0.953125 C 45.863281 -0.796875 38.945312 -2.976562 33.375 -5.59375 C 27.8125 -8.21875 22.804688 -10.800781 18.359375 -13.34375 C 13.910156 -15.894531 10.648438 -18.046875 8.578125 -19.796875 L 5.484375 -22.421875 L 27.90625 -60.09375 C 29.8125 -58.5 32.429688 -56.46875 35.765625 -54 C 39.109375 -51.539062 45.03125 -48.242188 53.53125 -44.109375 C 62.039062 -39.972656 69.550781 -37.90625 76.0625 -37.90625 C 94.976562 -37.90625 104.4375 -44.347656 104.4375 -57.234375 C 104.4375 -59.929688 103.757812 -62.429688 102.40625 -64.734375 C 101.0625 -67.046875 98.679688 -69.351562 95.265625 -71.65625 C 91.847656 -73.957031 88.828125 -75.785156 86.203125 -77.140625 C 83.578125 -78.492188 79.28125 -80.5625 73.3125 -83.34375 C 67.351562 -86.125 62.945312 -88.226562 60.09375 -89.65625 C 48.164062 -95.539062 38.941406 -102.894531 32.421875 -111.71875 C 25.910156 -120.539062 22.65625 -130.035156 22.65625 -140.203125 C 22.65625 -157.847656 29.171875 -172.273438 42.203125 -183.484375 C 55.242188 -194.691406 70.109375 -200.296875 86.796875 -200.296875 Z M 86.796875 -200.296875 "/></g></g></g><path stroke-linecap="butt" transform="matrix(0.75, 0.00000000000000002, -0.00000000000000002, 0.75, 0.00000216563, 0.0001)" fill="none" stroke-linejoin="miter" d="M -0.0000028875 33.499868 L 2160.000093 33.499868 " stroke="#ffffff" stroke-width="67" stroke-opacity="1" stroke-miterlimit="4"/><path stroke-linecap="butt" transform="matrix(0.75, 0, 0, 0.75, 0.00000216563, 2829.749975)" fill="none" stroke-linejoin="miter" d="M -0.0000028875 33.500035 L 2160.000093 33.500035 " stroke="#ffffff" stroke-width="67" stroke-opacity="1" stroke-miterlimit="4"/><path stroke-linecap="butt" transform="matrix(0, 0.75, -0.75, 0, 50.25, 12.562599)" fill="none" stroke-linejoin="miter" d="M -0.000132591 33.500001 L 3806.500036 33.500001 " stroke="#ffffff" stroke-width="67" stroke-opacity="1" stroke-miterlimit="4"/><path stroke-linecap="butt" transform="matrix(0, 0.75, -0.75, 0, 1619.99993, 0.0001)" fill="none" stroke-linejoin="miter" d="M -0.000133333 33.499909 L 3806.500035 33.499909 " stroke="#ffffff" stroke-width="67" stroke-opacity="1" stroke-miterlimit="4"/></svg>