<svg xmlns="http://www.w3.org/2000/svg" xmlns:xlink="http://www.w3.org/1999/xlink" width="500" zoomAndPan="magnify" viewBox="0 0 375 374.999991" height="500" preserveAspectRatio="xMidYMid meet" version="1.0"><defs><clipPath id="31e6ea82bd"><path d="M 3.75 119 L 43 119 L 43 158 L 3.75 158 Z M 3.75 119 " clip-rule="nonzero"/></clipPath><clipPath id="78289403a4"><path d="M 332 217 L 371.25 217 L 371.25 256 L 332 256 Z M 332 217 " clip-rule="nonzero"/></clipPath></defs><path fill="#ffffff" d="M 80.773438 176.625 L 98.925781 206.625 C 99.308594 207.25 99.722656 207.855469 100.164062 208.441406 C 100.605469 209.027344 101.078125 209.589844 101.574219 210.128906 C 102.074219 210.667969 102.597656 211.183594 103.144531 211.671875 C 103.691406 212.160156 104.261719 212.621094 104.855469 213.050781 C 105.449219 213.484375 106.0625 213.886719 106.695312 214.257812 C 107.328125 214.632812 107.976562 214.972656 108.644531 215.28125 C 109.308594 215.589844 109.988281 215.867188 110.679688 216.109375 C 111.375 216.351562 112.078125 216.558594 112.789062 216.730469 C 113.503906 216.90625 114.222656 217.042969 114.949219 217.148438 C 115.679688 217.25 116.40625 217.316406 117.140625 217.347656 C 117.875 217.378906 118.609375 217.375 119.339844 217.335938 C 120.074219 217.296875 120.804688 217.21875 121.527344 217.109375 C 122.253906 216.996094 122.972656 216.851562 123.683594 216.667969 C 124.394531 216.488281 125.09375 216.269531 125.785156 216.019531 C 126.476562 215.769531 127.152344 215.484375 127.8125 215.167969 C 128.476562 214.851562 129.121094 214.503906 129.75 214.125 L 237.449219 148.5 C 238.074219 148.117188 238.675781 147.703125 239.261719 147.261719 C 239.84375 146.820312 240.402344 146.347656 240.941406 145.851562 C 241.476562 145.355469 241.988281 144.832031 242.476562 144.285156 C 242.960938 143.738281 243.421875 143.167969 243.851562 142.578125 C 244.28125 141.988281 244.683594 141.375 245.054688 140.746094 C 245.425781 140.113281 245.765625 139.464844 246.074219 138.800781 C 246.382812 138.136719 246.65625 137.460938 246.898438 136.769531 C 247.140625 136.078125 247.347656 135.378906 247.519531 134.667969 C 247.695312 133.957031 247.832031 133.238281 247.9375 132.511719 C 248.039062 131.789062 248.109375 131.0625 248.140625 130.328125 C 248.171875 129.597656 248.167969 128.867188 248.128906 128.136719 C 248.089844 127.40625 248.015625 126.679688 247.90625 125.953125 C 247.796875 125.230469 247.652344 124.515625 247.472656 123.804688 C 247.292969 123.09375 247.078125 122.394531 246.828125 121.707031 C 246.582031 121.019531 246.300781 120.34375 245.984375 119.683594 C 245.671875 119.023438 245.328125 118.378906 244.949219 117.75 L 226.800781 87.75 L 205.125 52.5 L 186.976562 22.5 C 185.972656 20.851562 184.777344 19.359375 183.390625 18.019531 C 182.003906 16.679688 180.46875 15.535156 178.789062 14.589844 C 177.105469 13.644531 175.332031 12.925781 173.46875 12.4375 C 171.601562 11.945312 169.703125 11.703125 167.773438 11.699219 C 165.722656 11.699219 163.707031 11.976562 161.730469 12.539062 C 159.757812 13.097656 157.894531 13.917969 156.148438 15 L 48.523438 80.550781 C 47.269531 81.320312 46.097656 82.203125 45.015625 83.199219 C 43.929688 84.199219 42.953125 85.292969 42.085938 86.484375 C 41.21875 87.671875 40.472656 88.9375 39.851562 90.273438 C 39.234375 91.609375 38.75 92.992188 38.398438 94.425781 C 38.042969 95.855469 37.828125 97.304688 37.761719 98.773438 C 37.691406 100.246094 37.769531 101.710938 37.996094 103.164062 C 38.222656 104.621094 38.589844 106.039062 39.101562 107.421875 C 39.609375 108.804688 40.25 110.121094 41.023438 111.375 Z M 80.773438 176.625 " fill-opacity="1" fill-rule="nonzero"/><path fill="#ffffff" d="M 200.1875 15.386719 L 225.164062 0.160156 L 238.945312 22.765625 L 213.972656 37.992188 Z M 200.1875 15.386719 " fill-opacity="1" fill-rule="nonzero"/><g clip-path="url(#31e6ea82bd)"><path fill="#ffffff" d="M 3.746094 135.171875 L 28.726562 119.953125 L 42.5 142.566406 L 17.519531 157.78125 Z M 3.746094 135.171875 " fill-opacity="1" fill-rule="nonzero"/></g><path fill="#ffffff" d="M 221.820312 50.882812 L 246.800781 35.667969 L 260.574219 58.277344 L 235.59375 73.492188 Z M 221.820312 50.882812 " fill-opacity="1" fill-rule="nonzero"/><path fill="#ffffff" d="M 310.921875 197.027344 L 335.902344 181.808594 L 349.675781 204.417969 L 324.695312 219.636719 Z M 310.921875 197.027344 " fill-opacity="1" fill-rule="nonzero"/><path fill="#ffffff" d="M 25.234375 170.628906 L 50.171875 155.347656 L 64.003906 177.921875 L 39.066406 193.203125 Z M 25.234375 170.628906 " fill-opacity="1" fill-rule="nonzero"/><path fill="#ffffff" d="M 243.445312 86.265625 L 268.425781 71.046875 L 282.199219 93.65625 L 257.222656 108.875 Z M 243.445312 86.265625 " fill-opacity="1" fill-rule="nonzero"/><path fill="#ffffff" d="M 262.5 138 C 262.023438 139.742188 261.421875 141.445312 260.699219 143.101562 C 264.085938 143.402344 267.371094 144.152344 270.554688 145.351562 C 273.738281 146.546875 276.703125 148.148438 279.449219 150.148438 L 306.898438 133.5 L 298.273438 120 L 290.023438 106.5 L 262.5 123.226562 C 263.480469 128.148438 263.480469 133.074219 262.5 138 Z M 262.5 138 " fill-opacity="1" fill-rule="nonzero"/><path fill="#ffffff" d="M 289.320312 161.46875 L 314.300781 146.25 L 328.074219 168.859375 L 303.09375 184.078125 Z M 289.320312 161.46875 " fill-opacity="1" fill-rule="nonzero"/><path fill="#ffffff" d="M 294.226562 198.375 L 276.074219 168.375 C 275.691406 167.75 275.277344 167.144531 274.835938 166.558594 C 274.394531 165.972656 273.921875 165.410156 273.425781 164.871094 C 272.925781 164.332031 272.402344 163.816406 271.855469 163.328125 C 271.308594 162.839844 270.738281 162.378906 270.144531 161.949219 C 269.550781 161.515625 268.9375 161.113281 268.304688 160.742188 C 267.671875 160.367188 267.023438 160.027344 266.355469 159.71875 C 265.691406 159.410156 265.011719 159.132812 264.320312 158.890625 C 263.625 158.648438 262.921875 158.441406 262.210938 158.269531 C 261.496094 158.09375 260.777344 157.957031 260.050781 157.851562 C 259.320312 157.75 258.59375 157.683594 257.859375 157.652344 C 257.125 157.621094 256.390625 157.625 255.660156 157.664062 C 254.925781 157.703125 254.195312 157.78125 253.472656 157.890625 C 252.746094 158.003906 252.027344 158.148438 251.316406 158.332031 C 250.605469 158.511719 249.90625 158.730469 249.214844 158.980469 C 248.523438 159.230469 247.847656 159.515625 247.1875 159.832031 C 246.523438 160.148438 245.878906 160.496094 245.25 160.875 L 137.550781 226.726562 C 136.925781 227.109375 136.324219 227.519531 135.738281 227.964844 C 135.15625 228.40625 134.597656 228.875 134.058594 229.371094 C 133.523438 229.871094 133.011719 230.390625 132.523438 230.9375 C 132.039062 231.484375 131.578125 232.054688 131.148438 232.648438 C 130.71875 233.238281 130.316406 233.851562 129.945312 234.480469 C 129.574219 235.113281 129.234375 235.757812 128.925781 236.421875 C 128.617188 237.085938 128.34375 237.765625 128.101562 238.457031 C 127.859375 239.144531 127.652344 239.847656 127.480469 240.558594 C 127.304688 241.269531 127.167969 241.988281 127.0625 242.710938 C 126.960938 243.4375 126.890625 244.164062 126.859375 244.894531 C 126.828125 245.625 126.832031 246.359375 126.871094 247.089844 C 126.910156 247.820312 126.984375 248.546875 127.09375 249.269531 C 127.203125 249.996094 127.347656 250.710938 127.527344 251.421875 C 127.707031 252.128906 127.921875 252.828125 128.171875 253.515625 C 128.417969 254.207031 128.699219 254.878906 129.015625 255.542969 C 129.328125 256.203125 129.671875 256.847656 130.050781 257.476562 L 148.199219 287.476562 L 169.875 322.5 L 188.023438 352.5 C 188.410156 353.125 188.820312 353.730469 189.265625 354.316406 C 189.707031 354.902344 190.175781 355.464844 190.675781 356.003906 C 191.171875 356.542969 191.695312 357.058594 192.246094 357.546875 C 192.792969 358.035156 193.363281 358.496094 193.957031 358.925781 C 194.550781 359.359375 195.164062 359.761719 195.796875 360.132812 C 196.429688 360.507812 197.078125 360.847656 197.742188 361.15625 C 198.410156 361.464844 199.089844 361.742188 199.78125 361.984375 C 200.472656 362.226562 201.175781 362.433594 201.890625 362.605469 C 202.605469 362.78125 203.324219 362.917969 204.050781 363.023438 C 204.777344 363.125 205.507812 363.191406 206.242188 363.222656 C 206.976562 363.253906 207.707031 363.25 208.441406 363.210938 C 209.175781 363.171875 209.902344 363.09375 210.628906 362.984375 C 211.355469 362.871094 212.074219 362.726562 212.785156 362.542969 C 213.496094 362.363281 214.195312 362.144531 214.886719 361.894531 C 215.574219 361.644531 216.25 361.359375 216.914062 361.042969 C 217.578125 360.726562 218.222656 360.378906 218.851562 360 L 326.476562 294.449219 C 327.730469 293.679688 328.902344 292.796875 329.984375 291.800781 C 331.070312 290.800781 332.046875 289.707031 332.914062 288.515625 C 333.78125 287.328125 334.527344 286.0625 335.148438 284.726562 C 335.765625 283.390625 336.25 282.007812 336.601562 280.574219 C 336.957031 279.144531 337.171875 277.695312 337.238281 276.226562 C 337.308594 274.753906 337.230469 273.289062 337.003906 271.835938 C 336.777344 270.378906 336.410156 268.960938 335.898438 267.578125 C 335.390625 266.195312 334.75 264.878906 333.976562 263.625 Z M 294.226562 198.375 " fill-opacity="1" fill-rule="nonzero"/><g clip-path="url(#78289403a4)"><path fill="#ffffff" d="M 332.535156 232.414062 L 357.507812 217.1875 L 371.289062 239.792969 L 346.316406 255.019531 Z M 332.535156 232.414062 " fill-opacity="1" fill-rule="nonzero"/></g><path fill="#ffffff" d="M 135.957031 352.199219 L 160.929688 336.972656 L 174.714844 359.578125 L 149.738281 374.804688 Z M 135.957031 352.199219 " fill-opacity="1" fill-rule="nonzero"/><path fill="#ffffff" d="M 112.875 237 C 113.363281 235.285156 113.964844 233.609375 114.675781 231.976562 C 111.257812 231.589844 107.953125 230.761719 104.757812 229.488281 C 101.566406 228.214844 98.59375 226.546875 95.851562 224.476562 L 68.476562 241.5 L 84.976562 268.5 L 112.5 251.773438 C 111.644531 246.824219 111.769531 241.898438 112.875 237 Z M 112.875 237 " fill-opacity="1" fill-rule="nonzero"/><path fill="#ffffff" d="M 46.910156 206.074219 L 71.890625 190.855469 L 85.664062 213.464844 L 60.683594 228.683594 Z M 46.910156 206.074219 " fill-opacity="1" fill-rule="nonzero"/><path fill="#ffffff" d="M 92.710938 281.277344 L 117.6875 266.058594 L 131.460938 288.667969 L 106.484375 303.886719 Z M 92.710938 281.277344 " fill-opacity="1" fill-rule="nonzero"/><path fill="#ffffff" d="M 114.3125 316.761719 L 139.289062 301.542969 L 153.066406 324.152344 L 128.085938 339.371094 Z M 114.3125 316.761719 " fill-opacity="1" fill-rule="nonzero"/></svg>