<svg xmlns="http://www.w3.org/2000/svg" xmlns:xlink="http://www.w3.org/1999/xlink" width="500" zoomAndPan="magnify" viewBox="0 0 375 374.999991" height="500" preserveAspectRatio="xMidYMid meet" version="1.0"><defs><clipPath id="7009a95e6d"><path d="M 0 7.5 L 375 7.5 L 375 363 L 0 363 Z M 0 7.5 " clip-rule="nonzero"/></clipPath></defs><g clip-path="url(#7009a95e6d)"><path fill="#3182ce" d="M 155.375 112.636719 C 150.5 101.503906 148.546875 89.6875 148.546875 76.867188 C 148.546875 38.789062 179.554688 7.855469 217.683594 7.855469 C 234.128906 7.855469 249.628906 13.660156 261.824219 23.78125 C 274.019531 13.660156 289.515625 7.855469 305.964844 7.855469 C 344.09375 7.855469 375.097656 38.789062 375.097656 76.867188 C 375.097656 100.097656 368.683594 120.039062 350.109375 138.574219 C 342.074219 146.589844 326.964844 158.339844 306.863281 172.78125 C 304.796875 174.265625 302.71875 175.75 300.636719 177.226562 L 258.976562 263.503906 C 256.363281 268.875 251.058594 272.269531 245.253906 272.285156 L 92.511719 272.285156 C 85.34375 272.539062 78.953125 267.644531 77.09375 260.472656 L 34.539062 96.671875 L 15.417969 96.671875 C 6.902344 96.671875 0 89.523438 0 80.707031 C 0 71.890625 6.902344 64.742188 15.417969 64.742188 L 46.253906 64.742188 C 53.421875 64.488281 59.8125 69.386719 61.675781 76.558594 L 70.617188 112.636719 Z M 80.617188 354.589844 C 68.574219 342.21875 70.300781 320.386719 84.472656 305.828125 C 98.644531 291.265625 119.894531 289.496094 131.9375 301.867188 C 143.980469 314.238281 142.253906 336.070312 128.082031 350.632812 C 113.910156 365.191406 92.660156 366.964844 80.617188 354.589844 Z M 178.128906 354.589844 C 166.085938 342.21875 167.8125 320.386719 181.984375 305.828125 C 196.15625 291.265625 217.40625 289.496094 229.449219 301.867188 C 241.492188 314.238281 239.765625 336.070312 225.59375 350.632812 C 211.421875 365.191406 190.171875 366.964844 178.128906 354.589844 Z M 261.824219 183.816406 C 263.789062 183.816406 265.769531 183.242188 267.484375 182.085938 C 269.734375 180.566406 323.023438 144.539062 339.582031 128.019531 C 358.054688 109.589844 360.191406 90 360.191406 76.867188 C 360.191406 47.027344 335.867188 22.757812 305.964844 22.757812 C 287.78125 22.757812 271.679688 31.730469 261.824219 45.46875 C 251.964844 31.730469 235.863281 22.757812 217.683594 22.757812 C 187.777344 22.757812 163.453125 47.027344 163.453125 76.867188 C 163.453125 90 165.589844 109.589844 184.066406 128.019531 C 200.589844 144.539062 253.890625 180.566406 256.164062 182.085938 C 257.878906 183.242188 259.855469 183.816406 261.824219 183.816406 Z M 261.824219 183.816406 " fill-opacity="1" fill-rule="nonzero"/></g></svg>