<svg xmlns="http://www.w3.org/2000/svg" xmlns:xlink="http://www.w3.org/1999/xlink" width="500" zoomAndPan="magnify" viewBox="0 0 375 374.999991" height="500" preserveAspectRatio="xMidYMid meet" version="1.0"><path fill="#3182ce" d="M 317.363281 54.449219 C 282.25 19.339844 235.566406 0 185.90625 0 C 136.246094 0 89.5625 19.339844 54.449219 54.449219 C 19.339844 89.5625 0 136.25 0 185.90625 C 0 235.5625 19.339844 282.25 54.449219 317.363281 C 89.5625 352.472656 136.246094 371.8125 185.90625 371.8125 C 235.566406 371.8125 282.25 352.472656 317.363281 317.363281 C 352.472656 282.25 371.8125 235.566406 371.8125 185.90625 C 371.8125 136.246094 352.472656 89.5625 317.363281 54.449219 Z M 317.363281 54.449219 " fill-opacity="1" fill-rule="nonzero"/><path fill="#ffffff" d="M 230.304688 97.605469 C 231.757812 99.0625 233.136719 100.582031 234.441406 102.171875 C 235.746094 103.761719 236.972656 105.410156 238.113281 107.121094 C 239.253906 108.832031 240.3125 110.59375 241.28125 112.40625 C 242.25 114.21875 243.128906 116.078125 243.914062 117.976562 C 244.703125 119.875 245.394531 121.808594 245.992188 123.777344 C 246.589844 125.746094 247.085938 127.738281 247.488281 129.753906 C 247.890625 131.773438 248.191406 133.804688 248.394531 135.851562 C 248.59375 137.898438 248.695312 139.949219 248.695312 142.003906 C 248.695312 144.0625 248.59375 146.113281 248.394531 148.160156 C 248.191406 150.207031 247.890625 152.238281 247.488281 154.253906 C 247.085938 156.269531 246.589844 158.261719 245.992188 160.230469 C 245.394531 162.199219 244.703125 164.132812 243.914062 166.03125 C 243.128906 167.933594 242.25 169.789062 241.28125 171.601562 C 240.3125 173.414062 239.253906 175.175781 238.113281 176.886719 C 236.972656 178.597656 235.746094 180.246094 234.441406 181.835938 C 233.136719 183.425781 231.757812 184.949219 230.304688 186.402344 C 228.851562 187.855469 227.328125 189.234375 225.738281 190.539062 C 224.148438 191.84375 222.5 193.066406 220.789062 194.210938 C 219.082031 195.351562 217.320312 196.410156 215.503906 197.378906 C 213.691406 198.347656 211.835938 199.226562 209.933594 200.011719 C 208.035156 200.800781 206.101562 201.492188 204.132812 202.089844 C 202.167969 202.683594 200.171875 203.183594 198.15625 203.585938 C 196.140625 203.988281 194.109375 204.289062 192.0625 204.488281 C 190.015625 204.691406 187.964844 204.792969 185.90625 204.792969 C 183.851562 204.792969 181.800781 204.691406 179.753906 204.488281 C 177.707031 204.289062 175.675781 203.988281 173.660156 203.585938 C 171.640625 203.183594 169.648438 202.683594 167.679688 202.089844 C 165.714844 201.492188 163.78125 200.800781 161.878906 200.011719 C 159.980469 199.226562 158.125 198.347656 156.308594 197.378906 C 154.496094 196.410156 152.734375 195.351562 151.023438 194.210938 C 149.316406 193.066406 147.664062 191.84375 146.074219 190.539062 C 144.488281 189.234375 142.964844 187.855469 141.511719 186.402344 C 140.054688 184.949219 138.675781 183.425781 137.371094 181.835938 C 136.066406 180.246094 134.84375 178.597656 133.703125 176.886719 C 132.558594 175.175781 131.503906 173.414062 130.535156 171.601562 C 129.566406 169.789062 128.6875 167.933594 127.898438 166.03125 C 127.113281 164.132812 126.421875 162.199219 125.824219 160.230469 C 125.226562 158.261719 124.726562 156.269531 124.328125 154.253906 C 123.925781 152.238281 123.625 150.207031 123.421875 148.160156 C 123.222656 146.113281 123.121094 144.0625 123.121094 142.003906 C 123.121094 139.949219 123.222656 137.898438 123.421875 135.851562 C 123.625 133.804688 123.925781 131.773438 124.328125 129.753906 C 124.726562 127.738281 125.226562 125.746094 125.824219 123.777344 C 126.421875 121.8125 127.113281 119.875 127.898438 117.976562 C 128.6875 116.078125 129.566406 114.21875 130.535156 112.40625 C 131.503906 110.59375 132.558594 108.832031 133.703125 107.121094 C 134.84375 105.410156 136.066406 103.761719 137.371094 102.171875 C 138.675781 100.582031 140.054688 99.0625 141.511719 97.605469 C 142.964844 96.152344 144.488281 94.773438 146.074219 93.46875 C 147.664062 92.164062 149.316406 90.941406 151.023438 89.800781 C 152.734375 88.65625 154.496094 87.601562 156.308594 86.632812 C 158.125 85.660156 159.980469 84.785156 161.878906 83.996094 C 163.78125 83.210938 165.714844 82.519531 167.683594 81.921875 C 169.648438 81.324219 171.640625 80.824219 173.660156 80.421875 C 175.675781 80.023438 177.707031 79.722656 179.753906 79.519531 C 181.800781 79.316406 183.851562 79.21875 185.90625 79.21875 C 187.964844 79.21875 190.015625 79.316406 192.0625 79.519531 C 194.109375 79.722656 196.140625 80.023438 198.15625 80.421875 C 200.171875 80.824219 202.167969 81.324219 204.132812 81.921875 C 206.101562 82.519531 208.035156 83.210938 209.933594 83.996094 C 211.835938 84.785156 213.691406 85.660156 215.503906 86.632812 C 217.320312 87.601562 219.082031 88.65625 220.789062 89.800781 C 222.5 90.941406 224.148438 92.164062 225.738281 93.46875 C 227.328125 94.773438 228.851562 96.152344 230.304688 97.605469 Z M 230.304688 97.605469 " fill-opacity="1" fill-rule="nonzero"/><path fill="#ffffff" d="M 187.722656 232.691406 L 184.09375 232.691406 C 132.792969 232.691406 89.589844 267.328125 76.570312 314.492188 C 106.050781 339.597656 144.238281 354.777344 185.90625 354.777344 C 227.574219 354.777344 265.761719 339.597656 295.242188 314.492188 C 282.222656 267.332031 239.023438 232.691406 187.71875 232.691406 Z M 187.722656 232.691406 " fill-opacity="1" fill-rule="nonzero"/></svg>