<svg xmlns="http://www.w3.org/2000/svg" xmlns:xlink="http://www.w3.org/1999/xlink" width="500" zoomAndPan="magnify" viewBox="0 0 375 374.999991" height="500" preserveAspectRatio="xMidYMid meet" version="1.0"><defs><clipPath id="022b599c18"><path d="M 9.609375 128 L 365.109375 128 L 365.109375 375 L 9.609375 375 Z M 9.609375 128 " clip-rule="nonzero"/></clipPath><clipPath id="44185dba74"><path d="M 9.609375 0 L 350 0 L 350 137 L 9.609375 137 Z M 9.609375 0 " clip-rule="nonzero"/></clipPath><clipPath id="8cf19d00a3"><path d="M 9.609375 184 L 365.109375 184 L 365.109375 193 L 9.609375 193 Z M 9.609375 184 " clip-rule="nonzero"/></clipPath></defs><path fill="#ffffff" d="M 187.5 0 C 83.945312 0 0 83.945312 0 187.5 C 0 291.054688 83.945312 375 187.5 375 C 291.054688 375 375 291.054688 375 187.5 C 375 83.945312 291.054688 0 187.5 0 Z M 262.5 206.25 L 157.761719 206.25 L 187.5 235.988281 C 194.8125 243.300781 194.8125 255.1875 187.5 262.5 C 180.1875 269.8125 168.300781 269.8125 160.988281 262.5 L 99.242188 200.757812 C 91.914062 193.425781 91.914062 181.554688 99.242188 174.242188 L 160.988281 112.5 C 168.300781 105.1875 180.1875 105.1875 187.5 112.5 C 194.8125 119.8125 194.8125 131.699219 187.5 139.011719 L 157.761719 168.75 L 262.5 168.75 C 272.851562 168.75 281.25 177.148438 281.25 187.5 C 281.25 197.851562 272.851562 206.25 262.5 206.25 Z M 262.5 206.25 " fill-opacity="1" fill-rule="nonzero"/><path fill="#00abff" d="M 55.167969 78.230469 L 40.667969 132.347656 L 70.335938 132.347656 L 78.878906 130.058594 L 95.789062 66.949219 Z M 55.167969 78.230469 " fill-opacity="1" fill-rule="evenodd"/><path fill="#00abff" d="M 136.875 55.539062 L 119.847656 119.078125 L 160.355469 108.226562 L 177.496094 44.257812 Z M 136.875 55.539062 " fill-opacity="1" fill-rule="evenodd"/><path fill="#00abff" d="M 218.113281 32.972656 L 200.859375 97.375 L 241.363281 86.519531 L 258.734375 21.695312 Z M 218.113281 32.972656 " fill-opacity="1" fill-rule="evenodd"/><path fill="#00abff" d="M 299.355469 10.410156 L 281.871094 75.667969 L 322.378906 64.8125 L 336.371094 12.589844 C 332.269531 6.539062 324.625 3.394531 317.230469 5.449219 Z M 299.355469 10.410156 " fill-opacity="1" fill-rule="evenodd"/><path fill="#ffffff" d="M 40.667969 132.347656 L 55.167969 78.230469 L 26.269531 86.257812 C 16.9375 88.851562 13.757812 98.140625 13.816406 107.828125 L 13.945312 129.222656 C 13.953125 130.308594 14.050781 131.351562 14.238281 132.347656 Z M 40.667969 132.347656 " fill-opacity="1" fill-rule="nonzero"/><path fill="#ffffff" d="M 95.789062 66.949219 L 78.878906 130.058594 L 119.847656 119.078125 L 136.875 55.539062 Z M 95.789062 66.949219 " fill-opacity="1" fill-rule="nonzero"/><path fill="#ffffff" d="M 177.496094 44.257812 L 160.355469 108.226562 L 200.859375 97.375 L 218.113281 32.972656 Z M 177.496094 44.257812 " fill-opacity="1" fill-rule="nonzero"/><path fill="#ffffff" d="M 258.734375 21.695312 L 241.363281 86.519531 L 281.871094 75.667969 L 299.355469 10.410156 Z M 258.734375 21.695312 " fill-opacity="1" fill-rule="nonzero"/><path fill="#ffffff" d="M 336.371094 12.589844 L 322.378906 64.8125 L 332.414062 62.125 C 341.769531 59.617188 347.375 49.910156 344.867188 40.554688 L 338.800781 17.902344 C 338.277344 15.957031 337.445312 14.171875 336.371094 12.589844 Z M 336.371094 12.589844 " fill-opacity="1" fill-rule="nonzero"/><path fill="#00abff" d="M 40.667969 132.347656 L 55.753906 188.648438 L 93.347656 188.648438 L 78.261719 132.347656 Z M 40.667969 132.347656 " fill-opacity="1" fill-rule="evenodd"/><path fill="#00abff" d="M 115.421875 132.347656 L 130.507812 188.648438 L 168.101562 188.648438 L 153.015625 132.347656 Z M 115.421875 132.347656 " fill-opacity="1" fill-rule="evenodd"/><path fill="#00abff" d="M 190.609375 132.347656 L 205.695312 188.648438 L 243.292969 188.648438 L 228.203125 132.347656 Z M 190.609375 132.347656 " fill-opacity="1" fill-rule="evenodd"/><path fill="#00abff" d="M 265.800781 132.347656 L 280.886719 188.648438 L 318.476562 188.648438 L 303.394531 132.347656 Z M 265.800781 132.347656 " fill-opacity="1" fill-rule="evenodd"/><path fill="#00abff" d="M 340.984375 132.347656 L 356.070312 188.648438 L 361.265625 188.648438 L 361.265625 144.011719 C 361.265625 137.597656 356.015625 132.347656 349.601562 132.347656 Z M 340.984375 132.347656 " fill-opacity="1" fill-rule="evenodd"/><path fill="#00abff" d="M 195.617188 261.867188 C 193.902344 258.152344 198.859375 251.769531 206.6875 247.605469 C 214.519531 243.441406 222.257812 243.074219 223.972656 246.789062 C 225.683594 250.5 220.730469 256.882812 212.898438 261.046875 C 205.066406 265.210938 197.332031 265.578125 195.617188 261.867188 Z M 187.539062 286.933594 C 212.773438 286.933594 198.773438 328.042969 187.539062 328.042969 C 176.308594 328.042969 162.308594 286.933594 187.539062 286.933594 Z M 187.539062 212.265625 C 158.792969 212.265625 135.488281 235.570312 135.488281 264.320312 C 135.488281 268.234375 135.921875 272.050781 136.742188 275.71875 C 143.902344 290.125 150.433594 278.242188 163.046875 317.332031 L 165.660156 325.433594 C 169.355469 336.886719 175.503906 347.316406 187.539062 347.316406 C 199.574219 347.316406 205.363281 336.765625 209.421875 325.433594 L 212.394531 317.136719 C 226.28125 278.402344 227.003906 292.441406 238.019531 277.074219 C 239.046875 272.992188 239.59375 268.71875 239.59375 264.320312 C 239.59375 235.570312 216.289062 212.265625 187.539062 212.265625 Z M 168.394531 247.605469 C 176.222656 251.769531 181.179688 258.152344 179.464844 261.867188 C 177.75 265.578125 170.015625 265.210938 162.183594 261.046875 C 154.351562 256.882812 149.394531 250.5 151.109375 246.789062 C 152.824219 243.074219 160.5625 243.441406 168.394531 247.605469 Z M 168.394531 247.605469 " fill-opacity="1" fill-rule="evenodd"/><path fill="#ffffff" d="M 187.539062 328.042969 C 198.773438 328.042969 212.773438 286.933594 187.539062 286.933594 C 162.308594 286.933594 176.308594 328.042969 187.539062 328.042969 Z M 187.539062 328.042969 " fill-opacity="1" fill-rule="evenodd"/><path fill="#ffffff" d="M 168.859375 247.839844 C 169.78125 248.351562 170.675781 248.894531 171.535156 249.476562 C 172.394531 250.0625 173.207031 250.667969 173.972656 251.300781 C 174.734375 251.933594 175.4375 252.582031 176.074219 253.238281 C 176.710938 253.898438 177.273438 254.558594 177.761719 255.21875 C 178.25 255.878906 178.652344 256.527344 178.972656 257.164062 C 179.289062 257.800781 179.519531 258.414062 179.65625 259 C 179.792969 259.585938 179.835938 260.140625 179.785156 260.65625 C 179.738281 261.171875 179.59375 261.640625 179.359375 262.066406 C 179.128906 262.492188 178.804688 262.863281 178.394531 263.179688 C 177.984375 263.496094 177.496094 263.753906 176.925781 263.953125 C 176.355469 264.152344 175.714844 264.285156 175.007812 264.355469 C 174.300781 264.425781 173.539062 264.429688 172.71875 264.371094 C 171.898438 264.3125 171.042969 264.1875 170.144531 264 C 169.246094 263.8125 168.324219 263.566406 167.382812 263.257812 C 166.4375 262.949219 165.492188 262.589844 164.539062 262.171875 C 163.585938 261.757812 162.648438 261.292969 161.726562 260.785156 C 160.800781 260.273438 159.910156 259.730469 159.050781 259.148438 C 158.1875 258.566406 157.378906 257.957031 156.613281 257.324219 C 155.847656 256.691406 155.148438 256.042969 154.511719 255.386719 C 153.871094 254.726562 153.308594 254.066406 152.820312 253.40625 C 152.335938 252.746094 151.929688 252.097656 151.613281 251.460938 C 151.292969 250.824219 151.066406 250.210938 150.929688 249.625 C 150.792969 249.039062 150.75 248.484375 150.796875 247.96875 C 150.847656 247.453125 150.988281 246.984375 151.222656 246.558594 C 151.457031 246.132812 151.78125 245.761719 152.191406 245.445312 C 152.601562 245.128906 153.089844 244.871094 153.660156 244.671875 C 154.230469 244.472656 154.867188 244.339844 155.578125 244.269531 C 156.285156 244.199219 157.046875 244.195312 157.867188 244.253906 C 158.683594 244.3125 159.542969 244.4375 160.441406 244.625 C 161.339844 244.8125 162.261719 245.058594 163.203125 245.367188 C 164.148438 245.675781 165.09375 246.035156 166.046875 246.453125 C 166.996094 246.871094 167.933594 247.332031 168.859375 247.839844 Z M 168.859375 247.839844 " fill-opacity="1" fill-rule="nonzero"/><path fill="#ffffff" d="M 223.863281 246.589844 C 224.097656 247.015625 224.238281 247.484375 224.289062 248 C 224.335938 248.515625 224.292969 249.066406 224.15625 249.65625 C 224.019531 250.242188 223.792969 250.855469 223.472656 251.492188 C 223.152344 252.128906 222.75 252.777344 222.261719 253.4375 C 221.777344 254.097656 221.214844 254.757812 220.574219 255.414062 C 219.9375 256.074219 219.234375 256.722656 218.472656 257.355469 C 217.707031 257.988281 216.894531 258.59375 216.035156 259.175781 C 215.175781 259.757812 214.285156 260.304688 213.359375 260.8125 C 212.4375 261.324219 211.5 261.785156 210.546875 262.203125 C 209.59375 262.617188 208.648438 262.980469 207.703125 263.289062 C 206.761719 263.597656 205.839844 263.84375 204.941406 264.03125 C 204.042969 264.21875 203.1875 264.34375 202.367188 264.402344 C 201.546875 264.460938 200.785156 264.457031 200.078125 264.386719 C 199.367188 264.316406 198.730469 264.179688 198.160156 263.984375 C 197.589844 263.785156 197.101562 263.527344 196.691406 263.210938 C 196.28125 262.890625 195.957031 262.519531 195.722656 262.097656 C 195.488281 261.671875 195.347656 261.199219 195.296875 260.683594 C 195.25 260.167969 195.292969 259.617188 195.429688 259.03125 C 195.566406 258.441406 195.796875 257.832031 196.113281 257.195312 C 196.433594 256.558594 196.835938 255.910156 197.324219 255.25 C 197.808594 254.589844 198.375 253.929688 199.011719 253.269531 C 199.648438 252.609375 200.351562 251.964844 201.113281 251.332031 C 201.878906 250.699219 202.691406 250.089844 203.550781 249.507812 C 204.410156 248.925781 205.304688 248.378906 206.226562 247.871094 C 207.148438 247.363281 208.089844 246.898438 209.039062 246.484375 C 209.992188 246.066406 210.9375 245.703125 211.882812 245.394531 C 212.824219 245.089844 213.746094 244.839844 214.644531 244.652344 C 215.542969 244.464844 216.402344 244.34375 217.21875 244.285156 C 218.039062 244.222656 218.800781 244.230469 219.507812 244.300781 C 220.21875 244.371094 220.855469 244.503906 221.425781 244.703125 C 221.996094 244.898438 222.484375 245.15625 222.894531 245.476562 C 223.304688 245.792969 223.628906 246.164062 223.863281 246.589844 Z M 223.863281 246.589844 " fill-opacity="1" fill-rule="nonzero"/><path fill="#ffffff" d="M 239.59375 264.316406 C 239.59375 268.71875 239.046875 272.992188 238.019531 277.074219 C 227.003906 292.441406 226.28125 278.402344 212.394531 317.136719 L 209.421875 325.433594 C 205.363281 336.761719 199.574219 347.3125 187.539062 347.3125 C 175.503906 347.3125 169.351562 336.886719 165.660156 325.433594 L 163.046875 317.332031 C 150.433594 278.238281 143.902344 290.125 136.742188 275.714844 C 135.921875 272.046875 135.488281 268.234375 135.488281 264.316406 C 135.488281 235.570312 158.792969 212.261719 187.539062 212.261719 C 216.289062 212.265625 239.59375 235.570312 239.59375 264.316406 Z M 205.695312 188.648438 L 13.816406 188.648438 L 13.816406 308 C 13.816406 342.613281 42.136719 370.933594 76.75 370.933594 L 298.335938 370.933594 C 332.949219 370.933594 361.269531 342.613281 361.269531 308 L 361.269531 188.648438 Z M 205.695312 188.648438 " fill-opacity="1" fill-rule="evenodd"/><path fill="#ffffff" d="M 55.753906 188.648438 L 40.667969 132.347656 L 13.816406 132.347656 L 13.816406 188.648438 Z M 55.753906 188.648438 " fill-opacity="1" fill-rule="nonzero"/><path fill="#ffffff" d="M 78.261719 132.347656 L 93.347656 188.648438 L 130.507812 188.648438 L 115.421875 132.347656 Z M 78.261719 132.347656 " fill-opacity="1" fill-rule="nonzero"/><path fill="#ffffff" d="M 205.695312 188.648438 L 190.609375 132.347656 L 153.015625 132.347656 L 168.101562 188.648438 Z M 205.695312 188.648438 " fill-opacity="1" fill-rule="nonzero"/><path fill="#ffffff" d="M 280.886719 188.648438 L 265.800781 132.347656 L 228.203125 132.347656 L 243.292969 188.648438 Z M 280.886719 188.648438 " fill-opacity="1" fill-rule="nonzero"/><path fill="#ffffff" d="M 303.394531 132.347656 L 318.476562 188.648438 L 356.070312 188.648438 L 340.984375 132.347656 Z M 303.394531 132.347656 " fill-opacity="1" fill-rule="nonzero"/><g clip-path="url(#022b599c18)"><path fill="#000000" d="M 298.332031 375 L 76.75 375 C 67.742188 375 58.984375 373.21875 50.722656 369.710938 C 42.753906 366.324219 35.589844 361.480469 29.425781 355.320312 C 23.265625 349.160156 18.421875 341.996094 15.035156 334.023438 C 11.527344 325.761719 9.746094 317.007812 9.746094 307.996094 L 9.746094 132.34375 C 9.746094 130.097656 11.566406 128.277344 13.816406 128.277344 L 349.601562 128.277344 C 358.277344 128.277344 365.335938 135.335938 365.335938 144.011719 L 365.335938 307.996094 C 365.335938 317.007812 363.554688 325.761719 360.042969 334.023438 C 356.65625 341.992188 351.816406 349.160156 345.65625 355.320312 C 339.496094 361.480469 332.328125 366.324219 324.359375 369.710938 C 316.097656 373.21875 307.339844 375 298.332031 375 Z M 17.882812 136.414062 L 17.882812 308 C 17.882812 340.457031 44.292969 366.867188 76.75 366.867188 L 298.335938 366.867188 C 330.792969 366.867188 357.199219 340.460938 357.199219 308 L 357.199219 144.011719 C 357.199219 139.824219 353.792969 136.414062 349.605469 136.414062 Z M 17.882812 136.414062 " fill-opacity="1" fill-rule="nonzero"/></g><g clip-path="url(#44185dba74)"><path fill="#000000" d="M 70.332031 136.414062 C 68.535156 136.414062 66.894531 135.21875 66.40625 133.398438 C 65.824219 131.230469 67.109375 128.996094 69.28125 128.417969 L 331.363281 58.195312 C 334.835938 57.261719 337.753906 55.015625 339.570312 51.871094 C 341.386719 48.726562 341.871094 45.082031 340.9375 41.605469 L 334.871094 18.953125 C 333.925781 15.4375 331.648438 12.492188 328.460938 10.671875 C 325.332031 8.882812 321.730469 8.421875 318.316406 9.367188 L 27.359375 90.175781 C 19.453125 92.371094 17.84375 100.976562 17.882812 107.804688 L 18.015625 129.195312 C 18.019531 130.023438 18.09375 130.832031 18.238281 131.605469 C 18.648438 133.8125 17.1875 135.933594 14.976562 136.34375 C 12.769531 136.753906 10.644531 135.292969 10.238281 133.082031 C 10.007812 131.839844 9.890625 130.546875 9.882812 129.242188 L 9.75 107.851562 C 9.667969 94.382812 15.296875 85.082031 25.183594 82.335938 L 316.144531 1.527344 C 321.660156 -0.0078125 327.46875 0.730469 332.5 3.605469 C 337.589844 6.511719 341.222656 11.214844 342.734375 16.847656 L 348.796875 39.5 C 350.292969 45.074219 349.515625 50.914062 346.613281 55.941406 C 343.710938 60.96875 339.042969 64.558594 333.46875 66.050781 L 71.386719 136.277344 C 71.035156 136.371094 70.683594 136.414062 70.332031 136.414062 Z M 70.332031 136.414062 " fill-opacity="1" fill-rule="nonzero"/></g><g clip-path="url(#8cf19d00a3)"><path fill="#000000" d="M 361.265625 192.71875 L 13.816406 192.71875 C 11.570312 192.71875 9.75 190.898438 9.75 188.648438 C 9.75 186.402344 11.570312 184.582031 13.816406 184.582031 L 361.265625 184.582031 C 363.515625 184.582031 365.335938 186.402344 365.335938 188.648438 C 365.335938 190.898438 363.511719 192.71875 361.265625 192.71875 Z M 361.265625 192.71875 " fill-opacity="1" fill-rule="nonzero"/></g><path fill="#000000" d="M 55.75 192.71875 C 53.953125 192.71875 52.3125 191.519531 51.824219 189.699219 L 36.738281 133.398438 C 36.15625 131.230469 37.441406 128.996094 39.613281 128.417969 C 41.785156 127.835938 44.015625 129.125 44.59375 131.292969 L 59.679688 187.59375 C 60.261719 189.765625 58.972656 191.996094 56.804688 192.578125 C 56.453125 192.671875 56.101562 192.71875 55.75 192.71875 Z M 55.75 192.71875 " fill-opacity="1" fill-rule="nonzero"/><path fill="#000000" d="M 40.671875 136.414062 C 40.324219 136.414062 39.96875 136.371094 39.617188 136.273438 C 37.445312 135.691406 36.15625 133.460938 36.738281 131.292969 L 51.238281 77.179688 C 51.820312 75.007812 54.050781 73.71875 56.21875 74.300781 C 58.390625 74.882812 59.679688 77.117188 59.097656 79.285156 L 44.597656 133.398438 C 44.109375 135.21875 42.46875 136.414062 40.671875 136.414062 Z M 40.671875 136.414062 " fill-opacity="1" fill-rule="nonzero"/><path fill="#000000" d="M 93.347656 192.71875 C 91.550781 192.71875 89.90625 191.519531 89.417969 189.699219 L 74.324219 133.371094 C 73.742188 131.199219 75.03125 128.96875 77.199219 128.390625 C 79.371094 127.808594 81.601562 129.09375 82.183594 131.265625 L 97.277344 187.59375 C 97.859375 189.765625 96.570312 191.996094 94.398438 192.578125 C 94.046875 192.671875 93.695312 192.71875 93.347656 192.71875 Z M 93.347656 192.71875 " fill-opacity="1" fill-rule="nonzero"/><path fill="#000000" d="M 130.503906 192.71875 C 128.707031 192.71875 127.066406 191.519531 126.578125 189.699219 L 111.492188 133.398438 C 110.910156 131.230469 112.195312 128.996094 114.367188 128.417969 C 116.539062 127.835938 118.769531 129.125 119.347656 131.292969 L 134.433594 187.59375 C 135.015625 189.765625 133.726562 191.996094 131.558594 192.578125 C 131.207031 192.671875 130.855469 192.71875 130.503906 192.71875 Z M 130.503906 192.71875 " fill-opacity="1" fill-rule="nonzero"/><path fill="#000000" d="M 168.101562 192.71875 C 166.304688 192.71875 164.660156 191.519531 164.171875 189.699219 L 149.085938 133.398438 C 148.503906 131.230469 149.792969 128.996094 151.960938 128.417969 C 154.132812 127.835938 156.363281 129.125 156.945312 131.292969 L 172.03125 187.59375 C 172.613281 189.765625 171.324219 191.996094 169.152344 192.578125 C 168.800781 192.671875 168.449219 192.71875 168.101562 192.71875 Z M 168.101562 192.71875 " fill-opacity="1" fill-rule="nonzero"/><path fill="#000000" d="M 205.695312 192.71875 C 203.898438 192.71875 202.253906 191.519531 201.765625 189.699219 L 186.679688 133.398438 C 186.097656 131.230469 187.386719 128.996094 189.554688 128.417969 C 191.730469 127.835938 193.957031 129.125 194.539062 131.292969 L 209.625 187.59375 C 210.207031 189.765625 208.917969 191.996094 206.75 192.578125 C 206.398438 192.671875 206.042969 192.71875 205.695312 192.71875 Z M 205.695312 192.71875 " fill-opacity="1" fill-rule="nonzero"/><path fill="#000000" d="M 243.289062 192.71875 C 241.492188 192.71875 239.847656 191.519531 239.359375 189.699219 L 224.273438 133.398438 C 223.691406 131.230469 224.980469 128.996094 227.148438 128.417969 C 229.320312 127.835938 231.550781 129.125 232.132812 131.292969 L 247.21875 187.59375 C 247.800781 189.765625 246.511719 191.996094 244.34375 192.578125 C 243.992188 192.671875 243.636719 192.71875 243.289062 192.71875 Z M 243.289062 192.71875 " fill-opacity="1" fill-rule="nonzero"/><path fill="#000000" d="M 280.882812 192.71875 C 279.085938 192.71875 277.445312 191.519531 276.957031 189.699219 L 261.871094 133.398438 C 261.289062 131.230469 262.574219 128.996094 264.746094 128.417969 C 266.914062 127.835938 269.148438 129.125 269.730469 131.292969 L 284.816406 187.59375 C 285.394531 189.765625 284.109375 191.996094 281.9375 192.578125 C 281.585938 192.671875 281.230469 192.71875 280.882812 192.71875 Z M 280.882812 192.71875 " fill-opacity="1" fill-rule="nonzero"/><path fill="#000000" d="M 318.476562 192.71875 C 316.679688 192.71875 315.035156 191.519531 314.550781 189.699219 L 299.464844 133.398438 C 298.882812 131.230469 300.167969 128.996094 302.339844 128.417969 C 304.511719 127.835938 306.742188 129.125 307.320312 131.292969 L 322.40625 187.59375 C 322.988281 189.765625 321.703125 191.996094 319.53125 192.578125 C 319.179688 192.671875 318.824219 192.71875 318.476562 192.71875 Z M 318.476562 192.71875 " fill-opacity="1" fill-rule="nonzero"/><path fill="#000000" d="M 356.070312 192.71875 C 354.273438 192.71875 352.628906 191.519531 352.140625 189.699219 L 337.054688 133.398438 C 336.476562 131.230469 337.761719 128.996094 339.933594 128.417969 C 342.105469 127.835938 344.335938 129.125 344.914062 131.292969 L 360 187.59375 C 360.582031 189.765625 359.296875 191.996094 357.125 192.578125 C 356.773438 192.671875 356.417969 192.71875 356.070312 192.71875 Z M 356.070312 192.71875 " fill-opacity="1" fill-rule="nonzero"/><path fill="#000000" d="M 78.878906 134.128906 C 78.53125 134.128906 78.175781 134.082031 77.824219 133.988281 C 75.65625 133.40625 74.367188 131.171875 74.949219 129.003906 L 91.859375 65.898438 C 92.441406 63.726562 94.671875 62.441406 96.839844 63.023438 C 99.011719 63.605469 100.296875 65.835938 99.714844 68.003906 L 82.804688 131.109375 C 82.320312 132.925781 80.675781 134.128906 78.878906 134.128906 Z M 78.878906 134.128906 " fill-opacity="1" fill-rule="nonzero"/><path fill="#000000" d="M 119.851562 123.148438 C 119.503906 123.148438 119.148438 123.101562 118.796875 123.007812 C 116.625 122.425781 115.335938 120.195312 115.917969 118.027344 L 132.945312 54.484375 C 133.527344 52.316406 135.757812 51.027344 137.925781 51.609375 C 140.097656 52.191406 141.382812 54.421875 140.800781 56.589844 L 123.777344 120.132812 C 123.292969 121.949219 121.648438 123.148438 119.851562 123.148438 Z M 119.851562 123.148438 " fill-opacity="1" fill-rule="nonzero"/><path fill="#000000" d="M 160.355469 112.292969 C 160.007812 112.292969 159.652344 112.25 159.300781 112.152344 C 157.132812 111.574219 155.84375 109.339844 156.425781 107.171875 L 173.566406 43.203125 C 174.148438 41.03125 176.378906 39.746094 178.546875 40.328125 C 180.714844 40.910156 182.003906 43.140625 181.421875 45.308594 L 164.28125 109.277344 C 163.796875 111.097656 162.152344 112.292969 160.355469 112.292969 Z M 160.355469 112.292969 " fill-opacity="1" fill-rule="nonzero"/><path fill="#000000" d="M 200.863281 101.441406 C 200.515625 101.441406 200.160156 101.398438 199.808594 101.300781 C 197.636719 100.71875 196.351562 98.488281 196.929688 96.320312 L 214.1875 31.921875 C 214.769531 29.753906 217 28.464844 219.171875 29.046875 C 221.339844 29.628906 222.628906 31.859375 222.046875 34.027344 L 204.789062 98.425781 C 204.300781 100.242188 202.660156 101.441406 200.863281 101.441406 Z M 200.863281 101.441406 " fill-opacity="1" fill-rule="nonzero"/><path fill="#000000" d="M 241.371094 90.589844 C 241.019531 90.589844 240.664062 90.542969 240.3125 90.449219 C 238.144531 89.867188 236.855469 87.636719 237.4375 85.464844 L 254.808594 20.640625 C 255.390625 18.46875 257.621094 17.183594 259.789062 17.765625 C 261.960938 18.347656 263.25 20.578125 262.667969 22.746094 L 245.296875 87.570312 C 244.808594 89.390625 243.164062 90.589844 241.371094 90.589844 Z M 241.371094 90.589844 " fill-opacity="1" fill-rule="nonzero"/><path fill="#000000" d="M 281.875 79.734375 C 281.527344 79.734375 281.167969 79.691406 280.816406 79.59375 C 278.648438 79.011719 277.359375 76.78125 277.941406 74.613281 L 295.425781 9.359375 C 296.007812 7.1875 298.238281 5.902344 300.410156 6.480469 C 302.578125 7.0625 303.867188 9.296875 303.285156 11.464844 L 285.800781 76.71875 C 285.316406 78.535156 283.667969 79.734375 281.875 79.734375 Z M 281.875 79.734375 " fill-opacity="1" fill-rule="nonzero"/><path fill="#000000" d="M 322.378906 68.882812 C 322.03125 68.882812 321.675781 68.835938 321.324219 68.742188 C 319.152344 68.160156 317.867188 65.929688 318.449219 63.761719 L 332.441406 11.535156 C 333.023438 9.363281 335.253906 8.078125 337.425781 8.660156 C 339.59375 9.242188 340.882812 11.472656 340.300781 13.640625 L 326.308594 65.867188 C 325.820312 67.683594 324.175781 68.882812 322.378906 68.882812 Z M 322.378906 68.882812 " fill-opacity="1" fill-rule="nonzero"/><path fill="#000000" d="M 187.539062 351.382812 C 180.800781 351.382812 175.03125 348.675781 170.398438 343.335938 C 166.929688 339.335938 164.113281 333.886719 161.785156 326.679688 L 159.171875 318.582031 C 151.46875 294.699219 146.484375 291.085938 142.082031 287.898438 C 139.277344 285.867188 136.097656 283.5625 133.097656 277.527344 C 132.953125 277.234375 132.839844 276.925781 132.769531 276.605469 C 131.875 272.597656 131.417969 268.460938 131.417969 264.320312 C 131.417969 249.328125 137.257812 235.234375 147.855469 224.636719 C 158.457031 214.035156 172.546875 208.199219 187.539062 208.199219 C 202.527344 208.199219 216.621094 214.035156 227.222656 224.636719 C 237.820312 235.234375 243.660156 249.328125 243.660156 264.320312 C 243.660156 268.96875 243.089844 273.59375 241.960938 278.066406 C 241.835938 278.5625 241.621094 279.03125 241.324219 279.445312 C 237.226562 285.15625 234.261719 287.304688 231.878906 289.027344 C 228.039062 291.808594 225.007812 294.003906 216.222656 318.511719 L 213.246094 326.808594 C 211.582031 331.453125 208.871094 338.214844 204.5625 343.265625 C 199.96875 348.652344 194.242188 351.382812 187.539062 351.382812 Z M 140.601562 274.34375 C 142.621094 278.246094 144.410156 279.539062 146.855469 281.3125 C 149.375 283.136719 152.507812 285.40625 155.9375 290.628906 C 159.59375 296.1875 163.183594 304.511719 166.914062 316.082031 L 169.527344 324.183594 C 173.722656 337.1875 179.445312 343.246094 187.539062 343.246094 C 191.867188 343.246094 195.308594 341.570312 198.375 337.980469 C 200.996094 334.910156 203.289062 330.488281 205.59375 324.058594 L 208.566406 315.761719 C 217.75 290.136719 221.417969 286.554688 227.109375 282.4375 C 229.113281 280.984375 231.183594 279.484375 234.253906 275.332031 C 235.097656 271.742188 235.523438 268.039062 235.523438 264.316406 C 235.523438 237.855469 214 216.332031 187.539062 216.332031 C 161.078125 216.332031 139.554688 237.855469 139.554688 264.316406 C 139.554688 267.699219 139.90625 271.066406 140.601562 274.34375 Z M 238.019531 277.074219 Z M 238.019531 277.074219 " fill-opacity="1" fill-rule="nonzero"/><path fill="#000000" d="M 173.78125 268.496094 C 169.785156 268.496094 165.019531 267.164062 160.273438 264.640625 C 151.539062 259.996094 144.320312 251.789062 147.417969 245.082031 C 148.0625 243.683594 149.453125 241.804688 152.40625 240.8125 C 156.957031 239.28125 163.648438 240.476562 170.300781 244.015625 C 179.035156 248.660156 186.253906 256.867188 183.15625 263.570312 C 182.511719 264.972656 181.121094 266.851562 178.167969 267.84375 C 176.867188 268.28125 175.386719 268.496094 173.78125 268.496094 Z M 154.84375 248.570312 C 155 249.90625 157.71875 254.066406 164.09375 257.457031 C 170.0625 260.628906 174.582031 260.632812 175.734375 260.082031 C 175.578125 258.746094 172.859375 254.585938 166.484375 251.199219 C 160.515625 248.023438 156 248.019531 154.84375 248.570312 Z M 154.84375 248.570312 " fill-opacity="1" fill-rule="nonzero"/><path fill="#000000" d="M 201.300781 268.496094 C 199.695312 268.496094 198.21875 268.28125 196.914062 267.839844 C 193.960938 266.847656 192.570312 264.96875 191.925781 263.570312 C 188.828125 256.863281 196.046875 248.65625 204.78125 244.011719 C 211.433594 240.476562 218.125 239.277344 222.675781 240.808594 C 225.625 241.804688 227.019531 243.683594 227.664062 245.082031 C 230.761719 251.789062 223.542969 259.996094 214.808594 264.636719 C 210.0625 267.164062 205.296875 268.496094 201.300781 268.496094 Z M 199.351562 260.082031 C 200.503906 260.632812 205.023438 260.628906 210.988281 257.457031 C 217.363281 254.066406 220.082031 249.90625 220.238281 248.570312 C 219.085938 248.019531 214.566406 248.023438 208.601562 251.199219 C 202.222656 254.589844 199.503906 258.746094 199.351562 260.082031 Z M 220.402344 248.667969 Z M 220.242188 248.378906 Z M 220.242188 248.378906 " fill-opacity="1" fill-rule="nonzero"/><path fill="#000000" d="M 187.539062 332.109375 C 182.808594 332.109375 178.148438 328.316406 174.417969 321.429688 C 171.230469 315.546875 169.328125 308.34375 169.328125 302.164062 C 169.328125 296.804688 170.730469 292.222656 173.390625 288.914062 C 175.613281 286.15625 179.867188 282.867188 187.539062 282.867188 C 195.214844 282.867188 199.472656 286.15625 201.6875 288.914062 C 204.347656 292.222656 205.753906 296.804688 205.753906 302.164062 C 205.753906 308.34375 203.851562 315.546875 200.664062 321.429688 C 196.933594 328.316406 192.273438 332.109375 187.539062 332.109375 Z M 187.539062 291 C 183.917969 291 181.363281 291.984375 179.730469 294.011719 C 178.246094 295.859375 177.460938 298.679688 177.460938 302.160156 C 177.460938 307.050781 179 312.804688 181.570312 317.554688 C 184.199219 322.402344 186.726562 323.972656 187.539062 323.972656 C 188.355469 323.972656 190.882812 322.402344 193.511719 317.554688 C 196.082031 312.804688 197.617188 307.050781 197.617188 302.160156 C 197.617188 298.675781 196.832031 295.859375 195.347656 294.011719 C 193.71875 291.988281 191.167969 291 187.539062 291 Z M 187.539062 291 " fill-opacity="1" fill-rule="nonzero"/></svg>